<svg xmlns="http://www.w3.org/2000/svg" xmlns:xlink="http://www.w3.org/1999/xlink" width="534pt" height="80pt" viewBox="0.00 0.00 534.00 80.00">
<g id="graph0" class="graph" transform="scale(1 1) rotate(0) translate(4 75.9)">
<title>example</title>
<polygon fill="white" stroke="none" points="-4,4 -4,-75.9 529.6,-75.9 529.6,4 -4,4"/>
<!-- F(0) -->
<g id="node1" class="node">
<title>F(0)</title>
<ellipse fill="none" stroke="black" cx="28.8" cy="-43.1" rx="28.8" ry="28.8"/>
<text xml:space="preserve" text-anchor="middle" x="28.8" y="-38.9" font-family="Times,serif" font-size="14.00">F(0)</text>
</g>
<!-- F(1) -->
<g id="node2" class="node">
<title>F(1)</title>
<ellipse fill="none" stroke="black" cx="122.4" cy="-43.1" rx="28.8" ry="28.8"/>
<text xml:space="preserve" text-anchor="middle" x="122.4" y="-38.9" font-family="Times,serif" font-size="14.00">F(1)</text>
</g>
<!-- F(0)&#45;&gt;F(1) -->
<!-- F(2) -->
<g id="node3" class="node">
<title>F(2)</title>
<ellipse fill="none" stroke="black" cx="216" cy="-43.1" rx="28.8" ry="28.8"/>
<text xml:space="preserve" text-anchor="middle" x="216" y="-38.9" font-family="Times,serif" font-size="14.00">F(2)</text>
</g>
<!-- F(0)&#45;&gt;F(2) -->
<g id="edge6" class="edge">
<title>F(0)-&gt;F(2)</title>
<path fill="none" stroke="black" d="M52.06,-25.79C63.73,-17.81 78.68,-9.2 93.6,-5.1 118.28,1.7 126.52,1.7 151.2,-5.1 162.27,-8.14 173.36,-13.67 183.12,-19.58"/>
<polygon fill="black" stroke="black" points="181.17,-22.49 191.47,-24.97 184.97,-16.61 181.17,-22.49"/>
</g>
<!-- F(1)&#45;&gt;F(2) -->
<g id="edge2" class="edge">
<title>F(1)-&gt;F(2)</title>
<path fill="none" stroke="black" d="M151.38,-43.1C159.03,-43.1 167.47,-43.1 175.63,-43.1"/>
<polygon fill="black" stroke="black" points="175.36,-46.6 185.36,-43.1 175.36,-39.6 175.36,-46.6"/>
</g>
<!-- F(3) -->
<g id="node4" class="node">
<title>F(3)</title>
<ellipse fill="none" stroke="black" cx="309.6" cy="-43.1" rx="28.8" ry="28.8"/>
<text xml:space="preserve" text-anchor="middle" x="309.6" y="-38.9" font-family="Times,serif" font-size="14.00">F(3)</text>
</g>
<!-- F(1)&#45;&gt;F(3) -->
<g id="edge7" class="edge">
<title>F(1)-&gt;F(3)</title>
<path fill="none" stroke="black" d="M145.66,-25.79C157.33,-17.81 172.28,-9.2 187.2,-5.1 211.88,1.7 220.12,1.7 244.8,-5.1 255.87,-8.14 266.96,-13.67 276.72,-19.58"/>
<polygon fill="black" stroke="black" points="274.77,-22.49 285.07,-24.97 278.57,-16.61 274.77,-22.49"/>
</g>
<!-- F(2)&#45;&gt;F(3) -->
<g id="edge3" class="edge">
<title>F(2)-&gt;F(3)</title>
<path fill="none" stroke="black" d="M244.98,-43.1C252.63,-43.1 261.07,-43.1 269.23,-43.1"/>
<polygon fill="black" stroke="black" points="268.96,-46.6 278.96,-43.1 268.96,-39.6 268.96,-46.6"/>
</g>
<!-- F(4) -->
<g id="node5" class="node">
<title>F(4)</title>
<ellipse fill="none" stroke="black" cx="403.2" cy="-43.1" rx="28.8" ry="28.8"/>
<text xml:space="preserve" text-anchor="middle" x="403.2" y="-38.9" font-family="Times,serif" font-size="14.00">F(4)</text>
</g>
<!-- F(2)&#45;&gt;F(4) -->
<g id="edge8" class="edge">
<title>F(2)-&gt;F(4)</title>
<path fill="none" stroke="black" d="M239.26,-25.79C250.93,-17.81 265.88,-9.2 280.8,-5.1 305.48,1.7 313.72,1.7 338.4,-5.1 349.47,-8.14 360.56,-13.67 370.32,-19.58"/>
<polygon fill="black" stroke="black" points="368.37,-22.49 378.67,-24.97 372.17,-16.61 368.37,-22.49"/>
</g>
<!-- F(3)&#45;&gt;F(4) -->
<g id="edge4" class="edge">
<title>F(3)-&gt;F(4)</title>
<path fill="none" stroke="black" d="M338.58,-43.1C346.23,-43.1 354.67,-43.1 362.83,-43.1"/>
<polygon fill="black" stroke="black" points="362.56,-46.6 372.56,-43.1 362.56,-39.6 362.56,-46.6"/>
</g>
<!-- F(5) -->
<g id="node6" class="node">
<title>F(5)</title>
<ellipse fill="none" stroke="black" cx="496.8" cy="-43.1" rx="28.8" ry="28.8"/>
<text xml:space="preserve" text-anchor="middle" x="496.8" y="-38.9" font-family="Times,serif" font-size="14.00">F(5)</text>
</g>
<!-- F(3)&#45;&gt;F(5) -->
<g id="edge9" class="edge">
<title>F(3)-&gt;F(5)</title>
<path fill="none" stroke="black" d="M332.86,-25.79C344.53,-17.81 359.48,-9.2 374.4,-5.1 399.08,1.7 407.32,1.7 432,-5.1 443.07,-8.14 454.16,-13.67 463.92,-19.58"/>
<polygon fill="black" stroke="black" points="461.97,-22.49 472.27,-24.97 465.77,-16.61 461.97,-22.49"/>
</g>
<!-- F(4)&#45;&gt;F(5) -->
<g id="edge5" class="edge">
<title>F(4)-&gt;F(5)</title>
<path fill="none" stroke="black" d="M432.18,-43.1C439.83,-43.1 448.27,-43.1 456.43,-43.1"/>
<polygon fill="black" stroke="black" points="456.16,-46.6 466.16,-43.1 456.16,-39.6 456.16,-46.6"/>
</g>
</g>
</svg>